<svg id="Layer_1" data-name="Layer 1" xmlns="http://www.w3.org/2000/svg" xmlns:xlink="http://www.w3.org/1999/xlink" viewBox="0 0 96 96"><defs><linearGradient id="linear-gradient" x1="5.72" y1="72.41" x2="89.57" y2="24" gradientUnits="userSpaceOnUse"><stop offset="0" stop-color="#1fc7d4"/><stop offset="0.25" stop-color="#0fa5ea"/><stop offset="0.5" stop-color="aqua"/><stop offset="0.75" stop-color="#11aae7"/><stop offset="1" stop-color="#1fc7d4"/></linearGradient></defs><circle cx="48" cy="48.01" r="47.2" style="fill:#27262c"/><path d="M26.35,51.18a102.24,102.24,0,0,0,11.89,3.76c4.09,1,8.06,2,11.9,3a79.89,79.89,0,0,1,10.39,3.25,20.51,20.51,0,0,1,7.35,4.6,10,10,0,0,1,2.77,7.06,11.36,11.36,0,0,1-1.4,5.67,12.29,12.29,0,0,1-3.64,3.92,20.11,20.11,0,0,1-5.08,2.39A33.65,33.65,0,0,1,54.89,86a45.9,45.9,0,0,1-5.44.33,44,44,0,0,1-7.14-.53,26.63,26.63,0,0,1-3-.62A38.22,38.22,0,0,1,21,75a38.94,38.94,0,0,1-5.22-6.5,38,38,0,0,1-6-20.5,39.59,39.59,0,0,1,.43-5.8h0C7.15,37.61,6.11,32.45,6,27,7.06,39.31,15.54,47,26.35,51.18ZM3.71,66.52A48,48,0,1,0,0,48,48,48,0,0,0,3.71,66.52l-1.53-.25,1.53.25ZM93,62.43c-.62-5.91-3-9.27-6.78-14.28V48A38,38,0,0,0,78,24.32,40.55,40.55,0,0,0,75,21,38.17,38.17,0,0,0,54.2,10.32a22.7,22.7,0,0,0-2.62-.42,56.57,56.57,0,0,0-6.1-.25,26.53,26.53,0,0,0-5.79.63,18,18,0,0,0-5.31,2.11,11.2,11.2,0,0,0-3.87,3.81A11.08,11.08,0,0,0,29,22a9.45,9.45,0,0,0,.76,4.17,7.68,7.68,0,0,0,2.82,3.2,23.9,23.9,0,0,0,5.67,2.78c9.27,3.38,19,5,28.44,7.62C78.36,42.87,89.93,49.81,93,62.43Z" style="fill-rule:evenodd;fill:url(#linear-gradient)"/></svg>